<svg xmlns="http://www.w3.org/2000/svg" width="860" height="600" viewBox="0 0 860 600" font-family="-apple-system,Segoe UI,Helvetica,Arial,sans-serif">
<rect width="860" height="600" fill="#fbfcfe"/>
<text x="24" y="34" font-size="20" font-weight="700" fill="#1a1a1a">系统架构</text>
<rect x="330" y="50" width="200" height="56" rx="10" fill="#334e68" stroke="#334e68" stroke-width="1.5"/><text x="430.0" y="74" font-size="15" font-weight="700" fill="#dbeafe" text-anchor="middle">浏览器用户</text><text x="430.0" y="94" font-size="11.5" fill="#dbeafe" text-anchor="middle" opacity="0.92">Web / 移动端访问</text>
<rect x="40" y="140" width="360" height="70" rx="10" fill="#2563eb" stroke="#1d4ed8" stroke-width="1.5"/><text x="220.0" y="164" font-size="15" font-weight="700" fill="#fff" text-anchor="middle">app/  用户聊天前端</text><text x="220.0" y="184" font-size="11.5" fill="#fff" text-anchor="middle" opacity="0.92">Vue3 + Vite · 端口 5184</text>
<rect x="460" y="140" width="360" height="70" rx="10" fill="#7c3aed" stroke="#6d28d9" stroke-width="1.5"/><text x="640.0" y="164" font-size="15" font-weight="700" fill="#fff" text-anchor="middle">client/  管理后台</text><text x="640.0" y="184" font-size="11.5" fill="#fff" text-anchor="middle" opacity="0.92">Vue3 + Element Plus · 端口 5183</text>
<rect x="40" y="250" width="780" height="80" rx="10" fill="#0f172a" stroke="#0f172a" stroke-width="1.5"/><text x="430.0" y="274" font-size="15" font-weight="700" fill="#e2e8f0" text-anchor="middle">server/  FastAPI 后端  ·  端口 8000</text><text x="430.0" y="294" font-size="11.5" fill="#e2e8f0" text-anchor="middle" opacity="0.92">auth · chat(WS) · knowledge · product · admin · upload · dashboard</text>
<rect x="40" y="370" width="380" height="96" rx="10" fill="#0d9488" stroke="#0f766e" stroke-width="1.5"/><text x="230.0" y="394" font-size="15" font-weight="700" fill="#fff" text-anchor="middle">RAG 检索 / 推荐引擎</text><text x="230.0" y="414" font-size="11.5" fill="#fff" text-anchor="middle" opacity="0.92">意图分流(4类) · 双路检索: 向量(Chroma)+结构化推荐 · 跨会话画像</text>
<rect x="460" y="370" width="360" height="96" rx="10" fill="#b45309" stroke="#92400e" stroke-width="1.5"/><text x="640.0" y="394" font-size="15" font-weight="700" fill="#fff" text-anchor="middle">安全 / 工程化中间件</text><text x="640.0" y="414" font-size="11.5" fill="#fff" text-anchor="middle" opacity="0.92">JWT · CORS · 限流(slowapi) · Prometheus · 结构化日志</text>
<rect x="40" y="500" width="180" height="70" rx="10" fill="#475569" stroke="#334155" stroke-width="1.5"/><text x="130.0" y="524" font-size="15" font-weight="700" fill="#fff" text-anchor="middle">SQLite</text><text x="130.0" y="544" font-size="11.5" fill="#fff" text-anchor="middle" opacity="0.92">dev.db · 1165 商品</text>
<rect x="240" y="500" width="180" height="70" rx="10" fill="#475569" stroke="#334155" stroke-width="1.5"/><text x="330.0" y="524" font-size="15" font-weight="700" fill="#fff" text-anchor="middle">Chroma 向量库</text><text x="330.0" y="544" font-size="11.5" fill="#fff" text-anchor="middle" opacity="0.92">chroma_db · 知识库</text>
<rect x="440" y="500" width="180" height="70" rx="10" fill="#475569" stroke="#334155" stroke-width="1.5"/><text x="530.0" y="524" font-size="15" font-weight="700" fill="#fff" text-anchor="middle">知识库文件</text><text x="530.0" y="544" font-size="11.5" fill="#fff" text-anchor="middle" opacity="0.92">4 篇 · Markdown</text>
<rect x="640" y="500" width="180" height="70" rx="10" fill="#475569" stroke="#334155" stroke-width="1.5"/><text x="730.0" y="524" font-size="15" font-weight="700" fill="#fff" text-anchor="middle">商品图片</text><text x="730.0" y="544" font-size="11.5" fill="#fff" text-anchor="middle" opacity="0.92">uploads14 · 1274 张</text>
<rect x="700" y="250" width="130" height="80" rx="10" fill="#dc2626" stroke="#b91c1c" stroke-width="1.5"/><text x="765.0" y="274" font-size="15" font-weight="700" fill="#fff" text-anchor="middle">阿里云百炼</text><text x="765.0" y="294" font-size="11.5" fill="#fff" text-anchor="middle" opacity="0.92">chat / embedding / rerank</text>
<line x1="430" y1="106" x2="220" y2="140" stroke="#8a94a6" stroke-width="1.6"/><polygon points="220,140 213,135 213,145" fill="#8a94a6"/>
<line x1="430" y1="106" x2="640" y2="140" stroke="#8a94a6" stroke-width="1.6"/><polygon points="640,140 633,135 633,145" fill="#8a94a6"/>
<line x1="220" y1="210" x2="220" y2="250" stroke="#8a94a6" stroke-width="1.6"/><polygon points="220,250 213,245 213,255" fill="#8a94a6"/>
<line x1="640" y1="210" x2="640" y2="250" stroke="#8a94a6" stroke-width="1.6"/><polygon points="640,250 633,245 633,255" fill="#8a94a6"/>
<line x1="430" y1="330" x2="430" y2="370" stroke="#8a94a6" stroke-width="1.6"/><polygon points="430,370 423,365 423,375" fill="#8a94a6"/>
<line x1="640" y1="330" x2="640" y2="370" stroke="#8a94a6" stroke-width="1.6"/><polygon points="640,370 633,365 633,375" fill="#8a94a6"/>
<line x1="230" y1="450" x2="130" y2="500" stroke="#8a94a6" stroke-width="1.6"/><polygon points="130,500 123,495 123,505" fill="#8a94a6"/>
<line x1="430" y1="450" x2="330" y2="500" stroke="#8a94a6" stroke-width="1.6"/><polygon points="330,500 323,495 323,505" fill="#8a94a6"/>
<line x1="630" y1="450" x2="530" y2="500" stroke="#8a94a6" stroke-width="1.6"/><polygon points="530,500 523,495 523,505" fill="#8a94a6"/>
<line x1="820" y1="290" x2="820" y2="370" stroke="#8a94a6" stroke-width="1.6"/><polygon points="820,370 813,365 813,375" fill="#8a94a6"/>
</svg>